<?xml version="1.0" standalone="no"?>
<!DOCTYPE svg PUBLIC "-//W3C//DTD SVG 20010904//EN"
 "http://www.w3.org/TR/2001/REC-SVG-20010904/DTD/svg10.dtd">
<svg version="1.0" xmlns="http://www.w3.org/2000/svg"
 width="200.000000pt" height="200.000000pt" viewBox="0 0 200.000000 200.000000"
 preserveAspectRatio="xMidYMid meet">
<metadata>
Created by potrace 1.14, written by Peter Selinger 2001-2017
</metadata>
<g transform="translate(0.000000,200.000000) scale(0.100000,-0.100000)"
fill="#000000" stroke="none">
<path d="M870 1895 c-105 -34 -198 -142 -222 -257 l-12 -58 -89 0 c-97 0 -137
-14 -156 -57 -6 -12 -32 -195 -57 -405 l-47 -382 23 -43 c49 -93 181 -188 316
-229 90 -28 284 -25 389 4 238 67 441 233 535 437 49 105 60 155 60 268 0 151
-36 242 -138 350 -46 47 -61 57 -88 57 -29 0 -34 4 -39 28 -3 15 -10 43 -15
61 -5 19 -8 36 -6 38 1 2 32 -11 67 -29 78 -40 184 -142 227 -219 65 -114 86
-265 57 -401 -52 -247 -232 -463 -490 -589 -310 -151 -654 -117 -860 86 -156
154 -205 394 -124 611 30 80 16 77 -25 -5 -63 -124 -88 -229 -89 -366 -2 -211
51 -343 193 -485 162 -162 356 -230 623 -217 268 12 510 118 712 309 206 195
307 411 308 658 2 206 -52 341 -192 481 -73 73 -101 94 -181 132 -90 43 -194
77 -237 77 -11 0 -26 12 -33 26 -17 31 -69 73 -130 105 -57 29 -210 37 -280
14z m229 -135 c59 -30 99 -82 117 -155 l6 -25 -226 0 c-254 0 -244 -4 -207 75
21 44 61 86 106 109 44 23 156 21 204 -4z"/>
</g>
</svg>
